<svg width="80" height="100" viewBox="0 0 80 100" fill="none" xmlns="http://www.w3.org/2000/svg">
<path d="M25.7845 85.175C21.2669 81.045 19.948 72.368 21.8302 66.082C25.0938 70.045 29.6158 71.301 34.2996 72.009C41.5305 73.103 48.6318 72.694 55.3489 69.389C56.1173 69.011 56.8275 68.507 57.6671 67.998C58.2974 69.826 58.4614 71.672 58.2412 73.551C57.7059 78.127 55.4288 81.662 51.8069 84.341C50.3586 85.413 48.826 86.371 47.3302 87.382C42.7349 90.487 41.4916 94.129 43.2184 99.427C43.2594 99.556 43.2961 99.685 43.3889 100C41.0427 98.95 39.3288 97.421 38.023 95.411C36.6437 93.289 35.9875 90.942 35.953 88.403C35.9357 87.167 35.9357 85.92 35.7695 84.702C35.3637 81.732 33.9694 80.402 31.3425 80.325C28.6466 80.247 26.5141 81.913 25.9485 84.538C25.9054 84.739 25.8428 84.938 25.7802 85.172L25.7845 85.175Z" fill="white"/>
<path d="M0 65.034C0 65.034 13.3775 58.5177 26.7924 58.5177L36.9068 27.2155C37.2855 25.7017 38.3911 24.6729 39.6393 24.6729C40.8875 24.6729 41.9932 25.7017 42.3719 27.2155L52.4862 58.5177C68.374 58.5177 79.279 65.034 79.279 65.034C79.279 65.034 56.5558 3.133 56.5114 3.0088C55.8592 1.1787 54.7583 0 53.274 0H26.007C24.5227 0 23.4662 1.1787 22.7696 3.0088C22.7205 3.1307 0 65.034 0 65.034Z" fill="white"/>
</svg>